<svg width="22" height="16" viewBox="0 0 22 16" fill="none" xmlns="http://www.w3.org/2000/svg">
<path d="M14 16C11.7667 16 9.875 15.225 8.325 13.675C6.775 12.125 6 10.2333 6 8C6 5.78333 6.775 3.89583 8.325 2.3375C9.875 0.779167 11.7667 0 14 0C16.2167 0 18.1042 0.779167 19.6625 2.3375C21.2208 3.89583 22 5.78333 22 8C22 10.2333 21.2208 12.125 19.6625 13.675C18.1042 15.225 16.2167 16 14 16ZM14 14C15.6667 14 17.0833 13.4167 18.25 12.25C19.4167 11.0833 20 9.66667 20 8C20 6.33333 19.4167 4.91667 18.25 3.75C17.0833 2.58333 15.6667 2 14 2C12.3333 2 10.9167 2.58333 9.75 3.75C8.58333 4.91667 8 6.33333 8 8C8 9.66667 8.58333 11.0833 9.75 12.25C10.9167 13.4167 12.3333 14 14 14ZM15 7.6V5C15 4.71667 14.9042 4.47917 14.7125 4.2875C14.5208 4.09583 14.2833 4 14 4C13.7167 4 13.4792 4.09583 13.2875 4.2875C13.0958 4.47917 13 4.71667 13 5V8.025C13 8.15833 13.0292 8.2875 13.0875 8.4125C13.1458 8.5375 13.2167 8.64167 13.3 8.725L15.575 11C15.775 11.2 16.0125 11.3 16.2875 11.3C16.5625 11.3 16.8 11.2 17 11C17.2 10.8 17.3 10.5625 17.3 10.2875C17.3 10.0125 17.2 9.775 17 9.575L15 7.6ZM2 5C1.71667 5 1.47917 4.90417 1.2875 4.7125C1.09583 4.52083 1 4.28333 1 4C1 3.71667 1.09583 3.47917 1.2875 3.2875C1.47917 3.09583 1.71667 3 2 3H4C4.28333 3 4.52083 3.09583 4.7125 3.2875C4.90417 3.47917 5 3.71667 5 4C5 4.28333 4.90417 4.52083 4.7125 4.7125C4.52083 4.90417 4.28333 5 4 5H2ZM1 9C0.716667 9 0.479167 8.90417 0.2875 8.7125C0.0958333 8.52083 0 8.28333 0 8C0 7.71667 0.0958333 7.47917 0.2875 7.2875C0.479167 7.09583 0.716667 7 1 7H4C4.28333 7 4.52083 7.09583 4.7125 7.2875C4.90417 7.47917 5 7.71667 5 8C5 8.28333 4.90417 8.52083 4.7125 8.7125C4.52083 8.90417 4.28333 9 4 9H1ZM2 13C1.71667 13 1.47917 12.9042 1.2875 12.7125C1.09583 12.5208 1 12.2833 1 12C1 11.7167 1.09583 11.4792 1.2875 11.2875C1.47917 11.0958 1.71667 11 2 11H4C4.28333 11 4.52083 11.0958 4.7125 11.2875C4.90417 11.4792 5 11.7167 5 12C5 12.2833 4.90417 12.5208 4.7125 12.7125C4.52083 12.9042 4.28333 13 4 13H2Z" fill="#090F1F"/>
</svg>
