<svg width="16" height="16" viewBox="0 0 16 16" fill="none" xmlns="http://www.w3.org/2000/svg">
<mask id="mask0_61242_202" style="mask-type:alpha" maskUnits="userSpaceOnUse" x="0" y="0" width="16" height="16">
<rect width="16" height="16" fill="#D9D9D9"/>
</mask>
<g mask="url(#mask0_61242_202)">
<path d="M7.33464 3.99996H6.0013C5.81241 3.99996 5.65408 3.93607 5.5263 3.80829C5.39852 3.68052 5.33464 3.52218 5.33464 3.33329C5.33464 3.1444 5.39852 2.98607 5.5263 2.85829C5.65408 2.73052 5.81241 2.66663 6.0013 2.66663H7.33464V1.33329C7.33464 1.1444 7.39852 0.98607 7.5263 0.858293C7.65408 0.730515 7.81241 0.666626 8.0013 0.666626C8.19019 0.666626 8.34853 0.730515 8.4763 0.858293C8.60408 0.98607 8.66797 1.1444 8.66797 1.33329V2.66663H10.0013C10.1902 2.66663 10.3485 2.73052 10.4763 2.85829C10.6041 2.98607 10.668 3.1444 10.668 3.33329C10.668 3.52218 10.6041 3.68052 10.4763 3.80829C10.3485 3.93607 10.1902 3.99996 10.0013 3.99996H8.66797V5.33329C8.66797 5.52218 8.60408 5.68052 8.4763 5.80829C8.34853 5.93607 8.19019 5.99996 8.0013 5.99996C7.81241 5.99996 7.65408 5.93607 7.5263 5.80829C7.39852 5.68052 7.33464 5.52218 7.33464 5.33329V3.99996ZM4.66797 14.6666C4.3013 14.6666 3.98741 14.5361 3.7263 14.275C3.46519 14.0138 3.33464 13.7 3.33464 13.3333C3.33464 12.9666 3.46519 12.6527 3.7263 12.3916C3.98741 12.1305 4.3013 12 4.66797 12C5.03464 12 5.34852 12.1305 5.60964 12.3916C5.87075 12.6527 6.0013 12.9666 6.0013 13.3333C6.0013 13.7 5.87075 14.0138 5.60964 14.275C5.34852 14.5361 5.03464 14.6666 4.66797 14.6666ZM11.3346 14.6666C10.968 14.6666 10.6541 14.5361 10.393 14.275C10.1319 14.0138 10.0013 13.7 10.0013 13.3333C10.0013 12.9666 10.1319 12.6527 10.393 12.3916C10.6541 12.1305 10.968 12 11.3346 12C11.7013 12 12.0152 12.1305 12.2763 12.3916C12.5374 12.6527 12.668 12.9666 12.668 13.3333C12.668 13.7 12.5374 14.0138 12.2763 14.275C12.0152 14.5361 11.7013 14.6666 11.3346 14.6666ZM2.0013 2.66663H1.33464C1.14575 2.66663 0.987413 2.60274 0.859635 2.47496C0.731858 2.34718 0.667969 2.18885 0.667969 1.99996C0.667969 1.81107 0.731858 1.65274 0.859635 1.52496C0.987413 1.39718 1.14575 1.33329 1.33464 1.33329H2.43464C2.55686 1.33329 2.67352 1.36663 2.78464 1.43329C2.89575 1.49996 2.97908 1.5944 3.03464 1.71663L5.68464 7.33329H10.3513L12.768 2.99996C12.8235 2.88885 12.9013 2.80551 13.0013 2.74996C13.1013 2.6944 13.2124 2.66663 13.3346 2.66663C13.5902 2.66663 13.7819 2.77496 13.9096 2.99163C14.0374 3.20829 14.0402 3.42774 13.918 3.64996L11.5346 7.96663C11.4124 8.18885 11.2485 8.36107 11.043 8.48329C10.8374 8.60552 10.6124 8.66663 10.368 8.66663H5.4013L4.66797 9.99996H12.0013C12.1902 9.99996 12.3485 10.0638 12.4763 10.1916C12.6041 10.3194 12.668 10.4777 12.668 10.6666C12.668 10.8555 12.6041 11.0138 12.4763 11.1416C12.3485 11.2694 12.1902 11.3333 12.0013 11.3333H4.66797C4.16797 11.3333 3.78741 11.1166 3.5263 10.6833C3.26519 10.25 3.25686 9.81107 3.5013 9.36663L4.4013 7.73329L2.0013 2.66663Z" fill="#1C1B1F"/>
</g>
</svg>
