<svg width="16" height="16" viewBox="0 0 16 16" fill="none" xmlns="http://www.w3.org/2000/svg">
<path d="M3.82578 9L8.72578 13.9C8.92578 14.1 9.02162 14.3333 9.01328 14.6C9.00495 14.8667 8.90078 15.1 8.70078 15.3C8.50078 15.4833 8.26745 15.5792 8.00078 15.5875C7.73411 15.5958 7.50078 15.5 7.30078 15.3L0.700781 8.7C0.600781 8.6 0.529948 8.49167 0.488281 8.375C0.446615 8.25834 0.425781 8.13334 0.425781 8C0.425781 7.86667 0.446615 7.74167 0.488281 7.625C0.529948 7.50834 0.600781 7.4 0.700781 7.3L7.30078 0.700003C7.48411 0.51667 7.71328 0.425003 7.98828 0.425003C8.26328 0.425003 8.50078 0.51667 8.70078 0.700003C8.90078 0.900003 9.00078 1.1375 9.00078 1.4125C9.00078 1.6875 8.90078 1.925 8.70078 2.125L3.82578 7H15.0008C15.2841 7 15.5216 7.09584 15.7133 7.2875C15.9049 7.47917 16.0008 7.71667 16.0008 8C16.0008 8.28334 15.9049 8.52084 15.7133 8.7125C15.5216 8.90417 15.2841 9 15.0008 9H3.82578Z" fill="black" fill-opacity="0.5"/>
</svg>
