<svg width="20" height="20" viewBox="0 0 20 20" fill="none" xmlns="http://www.w3.org/2000/svg">
<path d="M17.2912 10L18.2112 8.41001C18.3217 8.21871 18.3518 7.99133 18.2948 7.77786C18.2377 7.5644 18.0983 7.38232 17.907 7.27167L16.3153 6.35167V4.51834C16.3153 4.29733 16.2275 4.08537 16.0713 3.92908C15.915 3.7728 15.703 3.68501 15.482 3.68501H13.6495L12.7303 2.09417C12.6199 1.90278 12.4379 1.7631 12.2245 1.70584C12.1188 1.67751 12.0085 1.67029 11.9 1.68458C11.7914 1.69888 11.6868 1.73442 11.592 1.78917L10.0003 2.70917L8.40866 1.78834C8.21727 1.67784 7.98981 1.64789 7.77633 1.70509C7.56285 1.76229 7.38084 1.90195 7.27033 2.09334L6.35033 3.68501H4.51783C4.29682 3.68501 4.08486 3.7728 3.92858 3.92908C3.7723 4.08537 3.6845 4.29733 3.6845 4.51834V6.35084L2.09283 7.27084C1.99802 7.32563 1.91494 7.39857 1.84833 7.48548C1.78173 7.5724 1.73291 7.67159 1.70466 7.77739C1.67641 7.88318 1.66929 7.99351 1.6837 8.10206C1.69812 8.21061 1.73378 8.31525 1.78866 8.41001L2.70866 10L1.78866 11.59C1.67865 11.7815 1.64881 12.0087 1.70563 12.2221C1.76245 12.4355 1.90133 12.6178 2.092 12.7292L3.68366 13.6492V15.4817C3.68366 15.7027 3.77146 15.9146 3.92774 16.0709C4.08402 16.2272 4.29598 16.315 4.517 16.315H6.35033L7.27033 17.9067C7.34411 18.0328 7.44944 18.1375 7.57598 18.2106C7.70251 18.2836 7.84589 18.3225 7.992 18.3233C8.137 18.3233 8.28116 18.285 8.4095 18.2108L9.9995 17.2908L11.5912 18.2108C11.7825 18.3214 12.0098 18.3515 12.2233 18.2944C12.4368 18.2374 12.6188 18.0979 12.7295 17.9067L13.6487 16.315H15.4812C15.7022 16.315 15.9141 16.2272 16.0704 16.0709C16.2267 15.9146 16.3145 15.7027 16.3145 15.4817V13.6492L17.9062 12.7292C18.001 12.6744 18.0841 12.6014 18.1507 12.5145C18.2173 12.4276 18.2661 12.3284 18.2943 12.2226C18.3226 12.1168 18.3297 12.0065 18.3153 11.898C18.3009 11.7894 18.2652 11.6848 18.2103 11.59L17.2912 10ZM7.91616 5.82501C8.2478 5.82512 8.5658 5.95696 8.80022 6.19154C9.03464 6.42612 9.16628 6.74421 9.16616 7.07584C9.16605 7.40747 9.03421 7.72548 8.79963 7.9599C8.56505 8.19432 8.24696 8.32595 7.91533 8.32584C7.5837 8.32573 7.2657 8.19388 7.03127 7.95931C6.79685 7.72473 6.66522 7.40664 6.66533 7.07501C6.66544 6.74338 6.79729 6.42537 7.03186 6.19095C7.26644 5.95653 7.58453 5.8249 7.91616 5.82501ZM8.16616 13.825L6.83283 12.8258L11.8328 6.15917L13.1662 7.15834L8.16616 13.825ZM12.0828 14.1583C11.9186 14.1583 11.756 14.1259 11.6044 14.063C11.4527 14.0001 11.3148 13.908 11.1988 13.7918C11.0827 13.6757 10.9906 13.5378 10.9279 13.3861C10.8651 13.2343 10.8328 13.0717 10.8328 12.9075C10.8329 12.7433 10.8653 12.5807 10.9282 12.429C10.9911 12.2773 11.0832 12.1395 11.1994 12.0234C11.3155 11.9074 11.4534 11.8153 11.6051 11.7525C11.7568 11.6897 11.9195 11.6575 12.0837 11.6575C12.4153 11.6576 12.7333 11.7895 12.9677 12.024C13.2021 12.2586 13.3338 12.5767 13.3337 12.9083C13.3336 13.24 13.2017 13.558 12.9671 13.7924C12.7326 14.0268 12.4145 14.1584 12.0828 14.1583Z" fill="#FF4144"/>
</svg>
