<svg width="7" height="12" viewBox="0 0 7 12" fill="none" xmlns="http://www.w3.org/2000/svg">
<path d="M4.60078 6L0.700781 2.1C0.517448 1.91667 0.425781 1.68334 0.425781 1.4C0.425781 1.11667 0.517448 0.883336 0.700781 0.700003C0.884115 0.51667 1.11745 0.425003 1.40078 0.425003C1.68411 0.425003 1.91745 0.51667 2.10078 0.700003L6.70078 5.3C6.80078 5.4 6.87161 5.50834 6.91328 5.625C6.95495 5.74167 6.97578 5.86667 6.97578 6C6.97578 6.13334 6.95495 6.25834 6.91328 6.375C6.87161 6.49167 6.80078 6.6 6.70078 6.7L2.10078 11.3C1.91745 11.4833 1.68411 11.575 1.40078 11.575C1.11745 11.575 0.884115 11.4833 0.700781 11.3C0.517448 11.1167 0.425781 10.8833 0.425781 10.6C0.425781 10.3167 0.517448 10.0833 0.700781 9.9L4.60078 6Z" fill="#090F1F"/>
</svg>
