<svg width="12" height="20" viewBox="0 0 12 20" fill="none" xmlns="http://www.w3.org/2000/svg">
<path d="M10 2V9L11.7 10.7C11.8 10.8 11.875 10.9125 11.925 11.0375C11.975 11.1625 12 11.2917 12 11.425V12C12 12.2833 11.9042 12.5208 11.7125 12.7125C11.5208 12.9042 11.2833 13 11 13H7V18.85C7 19.1333 6.90417 19.3708 6.7125 19.5625C6.52083 19.7542 6.28333 19.85 6 19.85C5.71667 19.85 5.47917 19.7542 5.2875 19.5625C5.09583 19.3708 5 19.1333 5 18.85V13H1C0.716667 13 0.479167 12.9042 0.2875 12.7125C0.0958333 12.5208 0 12.2833 0 12V11.425C0 11.2917 0.025 11.1625 0.075 11.0375C0.125 10.9125 0.2 10.8 0.3 10.7L2 9V2C1.71667 2 1.47917 1.90417 1.2875 1.7125C1.09583 1.52083 1 1.28333 1 1C1 0.716667 1.09583 0.479167 1.2875 0.2875C1.47917 0.0958333 1.71667 0 2 0H10C10.2833 0 10.5208 0.0958333 10.7125 0.2875C10.9042 0.479167 11 0.716667 11 1C11 1.28333 10.9042 1.52083 10.7125 1.7125C10.5208 1.90417 10.2833 2 10 2ZM2.85 11H9.15L8 9.85V2H4V9.85L2.85 11Z" fill="#090F1F"/>
</svg>
