<svg width="8" height="10" viewBox="0 0 8 10" fill="none" xmlns="http://www.w3.org/2000/svg">
<path d="M4 10C2.88333 10 1.9375 9.6125 1.1625 8.8375C0.3875 8.0625 0 7.11667 0 6C0 5.05834 0.279167 4.15417 0.8375 3.2875C1.39583 2.42084 2.1625 1.6625 3.1375 1.0125C3.32083 0.887503 3.51042 0.881253 3.70625 0.993753C3.90208 1.10625 4 1.275 4 1.5V2.15C4 2.43334 4.09792 2.67084 4.29375 2.8625C4.48958 3.05417 4.72917 3.15 5.0125 3.15C5.15417 3.15 5.28958 3.11875 5.41875 3.05625C5.54792 2.99375 5.6625 2.90417 5.7625 2.7875C5.82917 2.70417 5.91458 2.65209 6.01875 2.63125C6.12292 2.61042 6.22083 2.63334 6.3125 2.7C6.8375 3.075 7.25 3.55417 7.55 4.1375C7.85 4.72084 8 5.34167 8 6C8 7.11667 7.6125 8.0625 6.8375 8.8375C6.0625 9.6125 5.11667 10 4 10ZM1 6C1 6.43334 1.0875 6.84375 1.2625 7.23125C1.4375 7.61875 1.6875 7.95834 2.0125 8.25C2.00417 8.20834 2 8.17084 2 8.1375V8.025C2 7.75834 2.05 7.50834 2.15 7.275C2.25 7.04167 2.39583 6.82917 2.5875 6.6375L4 5.25L5.4125 6.6375C5.60417 6.82917 5.75 7.04167 5.85 7.275C5.95 7.50834 6 7.75834 6 8.025V8.1375C6 8.17084 5.99583 8.20834 5.9875 8.25C6.3125 7.95834 6.5625 7.61875 6.7375 7.23125C6.9125 6.84375 7 6.43334 7 6C7 5.58334 6.92292 5.18959 6.76875 4.81875C6.61458 4.44792 6.39167 4.11667 6.1 3.825C5.93333 3.93334 5.75833 4.01459 5.575 4.06875C5.39167 4.12292 5.20417 4.15 5.0125 4.15C4.49583 4.15 4.04792 3.97917 3.66875 3.6375C3.28958 3.29584 3.07083 2.875 3.0125 2.375C2.3625 2.925 1.86458 3.51042 1.51875 4.13125C1.17292 4.75209 1 5.375 1 6ZM4 6.65L3.2875 7.35C3.19583 7.44167 3.125 7.54584 3.075 7.6625C3.025 7.77917 3 7.9 3 8.025C3 8.29167 3.09792 8.52084 3.29375 8.7125C3.48958 8.90417 3.725 9 4 9C4.275 9 4.51042 8.90417 4.70625 8.7125C4.90208 8.52084 5 8.29167 5 8.025C5 7.89167 4.975 7.76875 4.925 7.65625C4.875 7.54375 4.80417 7.44167 4.7125 7.35L4 6.65Z" fill="#090F1F" fill-opacity="0.5"/>
</svg>
