<svg width="16" height="20" viewBox="0 0 16 20" fill="none" xmlns="http://www.w3.org/2000/svg">
<path d="M3.975 15.925C3.80833 15.4417 3.65417 14.95 3.5125 14.45C3.37083 13.95 3.25833 13.45 3.175 12.95L2 13.75V16.725L3.975 15.925ZM7.65 2.55C6.85 3.4 6.20833 4.52083 5.725 5.9125C5.24167 7.30417 5 8.76667 5 10.3C5 11.3 5.09167 12.2792 5.275 13.2375C5.45833 14.1958 5.7 15.0083 6 15.675H10C10.3 15.0083 10.5417 14.1958 10.725 13.2375C10.9083 12.2792 11 11.3 11 10.3C11 8.76667 10.7583 7.30417 10.275 5.9125C9.79167 4.52083 9.15 3.4 8.35 2.55C8.3 2.5 8.24583 2.4625 8.1875 2.4375C8.12917 2.4125 8.06667 2.4 8 2.4C7.93333 2.4 7.87083 2.4125 7.8125 2.4375C7.75417 2.4625 7.7 2.5 7.65 2.55ZM8 10.675C7.45 10.675 6.97917 10.4792 6.5875 10.0875C6.19583 9.69583 6 9.225 6 8.675C6 8.125 6.19583 7.65417 6.5875 7.2625C6.97917 6.87083 7.45 6.675 8 6.675C8.55 6.675 9.02083 6.87083 9.4125 7.2625C9.80417 7.65417 10 8.125 10 8.675C10 9.225 9.80417 9.69583 9.4125 10.0875C9.02083 10.4792 8.55 10.675 8 10.675ZM12.025 15.925L14 16.725V13.75L12.825 12.95C12.7417 13.45 12.6292 13.95 12.4875 14.45C12.3458 14.95 12.1917 15.4417 12.025 15.925ZM8.775 0.275C10.175 1.475 11.2292 2.95 11.9375 4.7C12.6458 6.45 13 8.44167 13 10.675L15.1 12.075C15.3833 12.2583 15.6042 12.5 15.7625 12.8C15.9208 13.1 16 13.4167 16 13.75V18.2C16 18.55 15.8542 18.825 15.5625 19.025C15.2708 19.225 14.9583 19.2583 14.625 19.125L11.025 17.675H4.975L1.375 19.125C1.04167 19.2583 0.729167 19.225 0.4375 19.025C0.145833 18.825 0 18.55 0 18.2V13.75C0 13.4167 0.0791667 13.1 0.2375 12.8C0.395833 12.5 0.616667 12.2583 0.9 12.075L3 10.675C3 8.44167 3.35417 6.45 4.0625 4.7C4.77083 2.95 5.825 1.475 7.225 0.275C7.34167 0.191667 7.46667 0.125 7.6 0.075C7.73333 0.025 7.86667 0 8 0C8.13333 0 8.26667 0.025 8.4 0.075C8.53333 0.125 8.65833 0.191667 8.775 0.275Z" fill="#090F1F"/>
</svg>
