<svg width="16" height="21" viewBox="0 0 16 21" fill="none" xmlns="http://www.w3.org/2000/svg">
<path d="M8 9.925L6.3 11.225C6.2 11.3083 6.1 11.3125 6 11.2375C5.9 11.1625 5.86667 11.0667 5.9 10.95L6.55 8.85L4.8 7.45C4.71667 7.36667 4.69167 7.27083 4.725 7.1625C4.75833 7.05417 4.83333 7 4.95 7H7.1L7.75 4.95C7.78333 4.83333 7.86667 4.775 8 4.775C8.13333 4.775 8.21667 4.83333 8.25 4.95L8.9 7H11.025C11.1417 7 11.2208 7.05417 11.2625 7.1625C11.3042 7.27083 11.2833 7.36667 11.2 7.45L9.425 8.85L10.075 10.95C10.1083 11.0667 10.075 11.1625 9.975 11.2375C9.875 11.3125 9.775 11.3083 9.675 11.225L8 9.925ZM8 19L3.325 20.55C2.99167 20.6667 2.6875 20.625 2.4125 20.425C2.1375 20.225 2 19.9583 2 19.625V13.275C1.36667 12.575 0.875 11.775 0.525 10.875C0.175 9.975 0 9.01667 0 8C0 5.76667 0.775 3.875 2.325 2.325C3.875 0.775 5.76667 0 8 0C10.2333 0 12.125 0.775 13.675 2.325C15.225 3.875 16 5.76667 16 8C16 9.01667 15.825 9.975 15.475 10.875C15.125 11.775 14.6333 12.575 14 13.275V19.625C14 19.9583 13.8625 20.225 13.5875 20.425C13.3125 20.625 13.0083 20.6667 12.675 20.55L8 19ZM8 14C9.66667 14 11.0833 13.4167 12.25 12.25C13.4167 11.0833 14 9.66667 14 8C14 6.33333 13.4167 4.91667 12.25 3.75C11.0833 2.58333 9.66667 2 8 2C6.33333 2 4.91667 2.58333 3.75 3.75C2.58333 4.91667 2 6.33333 2 8C2 9.66667 2.58333 11.0833 3.75 12.25C4.91667 13.4167 6.33333 14 8 14ZM4 18.025L8 17L12 18.025V14.925C11.4167 15.2583 10.7875 15.5208 10.1125 15.7125C9.4375 15.9042 8.73333 16 8 16C7.26667 16 6.5625 15.9042 5.8875 15.7125C5.2125 15.5208 4.58333 15.2583 4 14.925V18.025Z" fill="#1C1B1F"/>
</svg>
